# xmcd
# 
# Track frame offsets:
#     150
#     15477
#     50543
#     66680
#     86409
#     113244
#     137535
#     161027
#     183942
#     203355
#     222269
# 
# Disc length: 3260
# 
# Revision: 6
# Processed by: cddbd v1.5.2PL0 Copyright (c) Steve Scherf et al.
# Submitted via: fre:ac v1.0.31
# 
DISCID=940cba0b
DTITLE=The Black Crowes - Before The Frost...
DYEAR=2009
DGENRE=Rock/Pop
TTITLE0=Good Morning Captain
TTITLE1=Been a Long Time (Waiting on Love)
TTITLE2=Appaloosa
TTITLE3=A Train Still Makes a Lonely Sound
TTITLE4=I Aint Hiding
TTITLE5=Kept My Soul
TTITLE6=What Is Home?
TTITLE7=Houston Don't Dream About Me
TTITLE8=Make Glad
TTITLE9=And the Band Played On...
TTITLE10=The Last Place that Love Lives
EXTD=
EXTT0=
EXTT1=
EXTT2=
EXTT3=
EXTT4=
EXTT5=
EXTT6=
EXTT7=
EXTT8=
EXTT9=
EXTT10=
PLAYORDER=
